<svg xmlns="http://www.w3.org/2000/svg" viewBox="0 0 64 64" width="64" height="64">
  <defs>
    <linearGradient id="grad-gold" x1="0%" y1="0%" x2="100%" y2="100%">
      <stop offset="0%" stop-color="#F59E0B" />
      <stop offset="50%" stop-color="#D97706" />
      <stop offset="100%" stop-color="#9A3412" />
    </linearGradient>
    <linearGradient id="grad-pestle" x1="0%" y1="0%" x2="100%" y2="100%">
      <stop offset="0%" stop-color="#FEF3C7" />
      <stop offset="100%" stop-color="#FDE68A" />
    </linearGradient>
  </defs>
  <!-- Background Circle -->
  <circle cx="32" cy="32" r="30" fill="url(#grad-gold)" stroke="#FDE68A" stroke-width="2" />
  <!-- Sun Rays Radiance Ring -->
  <circle cx="32" cy="32" r="26" fill="none" stroke="#FDE68A" stroke-width="0.8" stroke-dasharray="2 3" opacity="0.6" />
  
  <!-- Mortar & Pestle Icon -->
  <g transform="translate(14, 14) scale(1.1)">
    <!-- Mortar Bowl -->
    <path d="M4 14 C4 23, 28 23, 28 14 C28 10, 4 10, 4 14 Z" fill="url(#grad-pestle)" />
    <path d="M6 14 C6 25, 26 25, 26 14 L24 24 C24 27, 8 27, 8 24 Z" fill="#FEF3C7" opacity="0.9" />
    <rect x="10" y="25" width="12" height="3" rx="1.5" fill="#FDE68A" />
    <!-- Pestle Rod -->
    <path d="M21 4 L26 13 C26 14.5, 24 15.5, 22.5 14.5 L17.5 5.5 C16.5 4, 19.5 2.5, 21 4 Z" fill="#FFFBEB" stroke="#B45309" stroke-width="0.75" />
  </g>
</svg>
